<?xml version="1.0" encoding="utf-8"?>
<!-- Svg Vector Icons : http://www.onlinewebfonts.com/icon -->
<!DOCTYPE svg PUBLIC "-//W3C//DTD SVG 1.1//EN" "http://www.w3.org/Graphics/SVG/1.1/DTD/svg11.dtd">
<svg version="1.1" xmlns="http://www.w3.org/2000/svg" xmlns:xlink="http://www.w3.org/1999/xlink" x="0px" y="0px" viewBox="0 0 256 256" enable-background="new 0 0 256 256" xml:space="preserve">
<metadata> Svg Vector Icons : http://www.onlinewebfonts.com/icon </metadata>
<g><g><g><path fill="#000000" d="M120.6,10.2c-21.5,2.2-33.7,11.2-38,28c-0.9,3.3-1,5.6-1.2,16.6c-0.2,11.6-0.3,12.8-1.1,13.7c-2.5,2.6-3.2,8.2-2.3,16.7c0.7,7.2,1.7,12.4,2.9,15.1c1,2.4,3.8,5.3,5.7,5.7c1,0.2,1.2,0.6,1.4,2.6c1.2,10,6.8,20.5,15,28.6c7.5,7.3,14.4,10.6,23.4,11c6,0.3,10.9-0.7,16.2-3.3c12.6-6.2,23.7-21.9,25.5-36.3c0.3-2,0.5-2.4,1.4-2.6c1.8-0.5,4.6-3.3,5.7-5.7c2.6-6.1,4.1-24.3,2.3-28.9c-0.5-1.2-1.3-2.5-1.7-3c-0.9-0.8-0.9-1.5-0.9-10.9c0-11.5-0.6-15.5-2.8-20.2c-1.7-3.4-6.3-8.1-9.7-9.9c-1.7-0.9-2.4-1.6-3.4-3.8c-2.5-5.5-8.8-10-16.6-12C136.3,10.2,127,9.6,120.6,10.2z M116.2,42.7l6.5,3.1h4.9h5l6.2-3.1c5.5-2.7,6.5-3.1,8.8-3.1c6.1,0,10,3,13.6,10.3c2.8,5.6,3.2,8.9,2.8,20.3c-0.1,4.8-0.2,8.7,0,8.7c0.1,0,0.9-1.3,1.6-2.9c1.7-3.6,2.9-4.8,4.2-4.1c1.8,1,2.1,2.3,2,8.2c-0.1,5.7-1.5,15.5-2.6,17.8c-0.3,0.7-1.6,1.7-3.1,2.5c-1.4,0.7-2.8,1.7-3.1,2.3c-0.3,0.5-0.9,2.9-1.2,5.2c-0.7,5-1.6,7.6-3.8,12c-8.1,16.1-22.8,24.9-36,21.4c-13.4-3.5-25.8-18.8-27.6-34.2c-0.5-4.2-1.3-5.3-4.7-7c-1.2-0.6-2.3-1.5-2.6-2.2c-1.5-3.1-3.2-17.3-2.7-21.5c0.4-2.8,0.9-3.8,2.1-4.5c1.3-0.7,2.5,0.5,4.2,4.1c0.7,1.6,1.4,2.9,1.6,2.9s0.1-5.1,0-11.5c-0.3-9.9-0.2-11.8,0.5-14.4c1-4,2.2-6.2,4.8-9c2.8-3,5.9-4.5,9.6-4.5C109.5,39.6,110.5,39.9,116.2,42.7z"/><path fill="#000000" d="M89.7,140.2c-1,0.6-3.6,2-5.7,3.2c-7.4,4.1-15.1,6.8-28.6,9.9c-9.6,2.2-11.6,3-13.9,5.5c-4.5,4.8-8.1,15.8-11.2,34.3c-1.8,10.7-4.2,32.8-4.2,38.6c0,4.1,1.2,7,4.1,9.9c4.9,4.9-5.4,4.4,97.9,4.4c103.2,0,93,0.5,97.8-4.4c4.6-4.6,4.8-6.9,3-25.3c-3.1-30.1-8.2-51-14.1-57.4c-2.4-2.5-4.2-3.3-13.9-5.6c-15.3-3.5-22.9-6.3-31.7-11.7c-6.1-3.7-6.9-3.3-7.3,3.2c-0.3,5.2-2.2,13.1-5.7,23.7c-4.2,13-11,29.9-11.7,29.1c-0.2-0.2-1.4-3.9-2.7-8.2c-1.3-4.4-3.2-10.3-4.3-13.4c-1-3-1.7-5.7-1.5-6c0.2-0.3,1.1-1.5,2.1-2.8c2.8-3.6,4.2-6.6,3.9-8.5c-0.4-2.1-2.2-4.4-4.3-5.4c-1.7-0.8-1.7-0.8-5,0.7c-1.8,0.8-3.8,1.4-4.4,1.4c-0.6,0-2.7-0.6-4.5-1.4c-2.8-1.2-3.5-1.3-4.6-0.9c-2.7,1-4.8,3.8-4.8,6.6c0,1.5,0.5,2.4,5.6,9.9c0.7,1,0.6,1.5-1.2,7c-1.1,3.2-2.9,9.3-4.1,13.3c-1.2,4.1-2.4,7.6-2.5,7.8c-0.2,0.2-1.2-1.6-2.2-3.9c-8-18.3-14.7-39.7-15.2-48.9C94,139,93.3,138.3,89.7,140.2z"/></g></g></g>
</svg>